<?xml version="1.0" encoding="UTF-8" standalone="no"?>
<!-- Created with Inkscape (http://www.inkscape.org/) -->

<svg
   xmlns:osb="http://www.openswatchbook.org/uri/2009/osb"
   xmlns:dc="http://purl.org/dc/elements/1.1/"
   xmlns:cc="http://creativecommons.org/ns#"
   xmlns:rdf="http://www.w3.org/1999/02/22-rdf-syntax-ns#"
   xmlns:svg="http://www.w3.org/2000/svg"
   xmlns="http://www.w3.org/2000/svg"
   xmlns:sodipodi="http://sodipodi.sourceforge.net/DTD/sodipodi-0.dtd"
   xmlns:inkscape="http://www.inkscape.org/namespaces/inkscape"
   width="123.0052"
   height="41.09"
   id="svg2"
   version="1.1"
   inkscape:version="0.48.4 r9939"
   sodipodi:docname="logo.svg"
   inkscape:export-filename="/media/removable/sd/Dropbox/C++ Files/CLionProjects/cOptim/logo.png"
   inkscape:export-xdpi="150"
   inkscape:export-ydpi="150">
  <defs
     id="defs4">
    <linearGradient
       id="linearGradient3854"
       osb:paint="solid">
      <stop
         style="stop-color:#000000;stop-opacity:1;"
         offset="0"
         id="stop3856" />
    </linearGradient>
  </defs>
  <sodipodi:namedview
     id="base"
     pagecolor="#ffffff"
     bordercolor="#666666"
     borderopacity="1.0"
     inkscape:pageopacity="0.0"
     inkscape:pageshadow="2"
     inkscape:zoom="11.313708"
     inkscape:cx="65.517259"
     inkscape:cy="10.116205"
     inkscape:document-units="px"
     inkscape:current-layer="layer1"
     showgrid="false"
     fit-margin-top="0"
     fit-margin-left="0"
     fit-margin-right="0"
     fit-margin-bottom="0"
     showguides="true"
     inkscape:guide-bbox="true"
     inkscape:window-width="1920"
     inkscape:window-height="1056"
     inkscape:window-x="0"
     inkscape:window-y="24"
     inkscape:window-maximized="1">
    <sodipodi:guide
       orientation="1,0"
       position="-10.013461,55.061022"
       id="guide3805" />
    <sodipodi:guide
       orientation="0,1"
       position="-18.018292,55.454794"
       id="guide3807" />
  </sodipodi:namedview>
  <metadata
     id="metadata7">
    <rdf:RDF>
      <cc:Work
         rdf:about="">
        <dc:format>image/svg+xml</dc:format>
        <dc:type
           rdf:resource="http://purl.org/dc/dcmitype/StillImage" />
        <dc:title />
      </cc:Work>
    </rdf:RDF>
  </metadata>
  <g
     inkscape:label="Layer 1"
     inkscape:groupmode="layer"
     id="layer1"
     transform="translate(-154.27319,-234.33289)">
    <rect
       style="fill:#ffffff;fill-opacity:1;stroke:none"
       id="rect4006"
       width="123.0052"
       height="41.09"
       x="154.27319"
       y="234.33289" />
    <text
       xml:space="preserve"
       style="font-size:40px;font-style:normal;font-weight:normal;line-height:125%;letter-spacing:0px;word-spacing:0px;fill:#2c77ce;fill-opacity:1;stroke:none;font-family:Sans"
       x="153.07137"
       y="267.23911"
       id="text2985"
       sodipodi:linespacing="125%"><tspan
         sodipodi:role="line"
         id="tspan2987"
         x="153.07137"
         y="267.23911">c</tspan></text>
    <text
       xml:space="preserve"
       style="font-size:40px;font-style:normal;font-variant:normal;font-weight:normal;font-stretch:normal;text-align:start;line-height:150%;letter-spacing:0px;word-spacing:0px;writing-mode:lr-tb;text-anchor:start;fill:#000000;fill-opacity:1;stroke:none;font-family:Arial;-inkscape-font-specification:Arial"
       x="207.66502"
       y="267.47366"
       id="text2989"
       sodipodi:linespacing="150%"><tspan
         sodipodi:role="line"
         id="tspan2991"
         x="207.66502"
         y="267.47366"
         style="letter-spacing:-1.37px;word-spacing:0px;fill:#2c77ce;fill-opacity:1"><tspan
           style="fill:#000000"
           id="tspan3763">ptim</tspan></tspan></text>
    <g
       id="g3996"
       transform="matrix(1.0948815,0,0,1.0948815,-19.728715,-25.515538)">
      <g
         transform="translate(48.580528,33.063077)"
         id="g3963">
        <g
           id="g3933">
          <path
             transform="matrix(0.82527882,0,0,0.87360595,89.364366,219.35023)"
             d="m 83.590124,0.76708245 c 0,9.37955755 -7.603633,16.98319055 -16.98319,16.98319055 -9.379558,0 -16.983191,-7.603633 -16.983191,-16.98319055 0,-9.37955715 7.603633,-16.98319045 16.983191,-16.98319045 9.379557,0 16.98319,7.6036333 16.98319,16.98319045 z"
             sodipodi:ry="16.983191"
             sodipodi:rx="16.983191"
             sodipodi:cy="0.76708245"
             sodipodi:cx="66.606934"
             id="path3765"
             style="fill:none;stroke:#000000;stroke-width:2.15131855;stroke-miterlimit:4;stroke-opacity:1;stroke-dasharray:none"
             sodipodi:type="arc" />
          <path
             transform="matrix(0.56133831,0,0,0.59523878,106.88108,219.52933)"
             d="m 83.590124,0.76708245 c 0,9.37955755 -7.603633,16.98319055 -16.98319,16.98319055 -9.379558,0 -16.983191,-7.603633 -16.983191,-16.98319055 0,-9.37955715 7.603633,-16.98319045 16.983191,-16.98319045 9.379557,0 16.98319,7.6036333 16.98319,16.98319045 z"
             sodipodi:ry="16.983191"
             sodipodi:rx="16.983191"
             sodipodi:cy="0.76708245"
             sodipodi:cx="66.606934"
             id="path3765-1"
             style="fill:none;stroke:#000000;stroke-width:1.58006489;stroke-miterlimit:4;stroke-opacity:1;stroke-dasharray:none"
             sodipodi:type="arc" />
          <path
             transform="matrix(0.34572494,0,0,0.36784024,121.26862,219.6485)"
             d="m 83.590124,0.76708245 c 0,9.37955755 -7.603633,16.98319055 -16.98319,16.98319055 -9.379558,0 -16.983191,-7.603633 -16.983191,-16.98319055 0,-9.37955715 7.603633,-16.98319045 16.983191,-16.98319045 9.379557,0 16.98319,7.6036333 16.98319,16.98319045 z"
             sodipodi:ry="16.983191"
             sodipodi:rx="16.983191"
             sodipodi:cy="0.76708245"
             sodipodi:cx="66.606934"
             id="path3765-1-6"
             style="fill:none;stroke:#000000;stroke-width:2.561167;stroke-miterlimit:4;stroke-opacity:1;stroke-dasharray:none"
             sodipodi:type="arc" />
        </g>
        <path
           style="fill:#ffffff;fill-opacity:1;stroke:none"
           d="m 149.5416,214.66898 c 0,0 0.21477,0.20825 0.31515,0.31884 0.14726,0.16223 0.28374,0.33377 0.42046,0.50475 0.13362,0.16713 0.26802,0.33401 0.39064,0.50917 0.0811,0.11592 0.22797,0.35803 0.22797,0.35803 l -2.23926,1.54496 -1.01718,-1.30585 z"
           id="path3889"
           inkscape:connector-curvature="0"
           sodipodi:nodetypes="cssscccc" />
        <path
           style="fill:#ffffff;fill-opacity:1;stroke:none"
           d="m 133.6541,220.01495 c 0,0 0.0199,-0.36125 0.0225,-0.53517 0.004,-0.25516 -9e-4,-0.50121 0.0194,-0.75557 0.0198,-0.24869 0.0475,-0.5408 0.0831,-0.78765 0.0237,-0.16351 0.0758,-0.4782 0.0758,-0.4782 l 3.11689,0.48971 -0.0856,2.06688 z"
           id="path3889-1"
           inkscape:connector-curvature="0"
           sodipodi:nodetypes="cssscccc" />
      </g>
      <path
         inkscape:connector-curvature="0"
         id="path3983"
         d="m 185.94115,259.64101 2.34229,-2.16551"
         style="fill:none;stroke:#000000;stroke-width:0.73067272;stroke-linecap:butt;stroke-linejoin:miter;stroke-miterlimit:4;stroke-opacity:1;stroke-dasharray:none" />
    </g>
  </g>
</svg>
